<?xml version="1.0" encoding="UTF-8"?>
<svg width="1200pt" height="1200pt" version="1.1" viewBox="0 0 1200 1200" xmlns="http://www.w3.org/2000/svg">
 <g fill="#11b0d4">
  <path d="m710 435c0 60.75-49.25 110-110 110s-110-49.25-110-110 49.25-110 110-110 110 49.25 110 110"/>
  <path d="m600 112.5c-268.75 0-487.5 218.75-487.5 487.5s218.75 487.5 487.5 487.5 487.5-218.75 487.5-487.5-218.75-487.5-487.5-487.5zm235 775c0-132.5-110-248.75-235-248.75s-235 116.25-235 248.75h-50c0-150 112.5-278.75 252.5-296.25-72.5-15-126.25-80-126.25-156.25-1.25-88.75 71.25-160 158.75-160s160 71.25 160 160c0 76.25-53.75 141.25-126.25 156.25 138.75 17.5 251.25 146.25 251.25 296.25z"/>
 </g>
</svg>
